<?xml version="1.0" standalone="no"?>
<!DOCTYPE svg PUBLIC "-//W3C//DTD SVG 20010904//EN"
 "http://www.w3.org/TR/2001/REC-SVG-20010904/DTD/svg10.dtd">
<svg version="1.0" xmlns="http://www.w3.org/2000/svg"
 width="50.000000pt" height="32.000000pt" viewBox="0 0 50.000000 32.000000"
 preserveAspectRatio="xMidYMid meet">
<g transform="translate(0.000000,32.000000) scale(0.100000,-0.100000)"
fill="#5f9ea0" stroke="none">
<path d="M167 278 c-69 -110 -138 -241 -134 -252 6 -14 63 -17 84 -3 6 4 34
49 63 99 l51 93 -17 38 c-22 49 -30 53 -47 25z m-14 -145 c-26 -47 -54 -88
-61 -91 -22 -8 -27 7 -10 36 97 169 101 175 110 158 7 -13 -3 -38 -39 -103z"/>
<path d="M301 264 c-12 -19 -21 -40 -21 -45 0 -12 87 -167 107 -190 17 -20 82
-24 89 -5 5 13 -129 260 -146 271 -5 3 -17 -11 -29 -31z m88 -117 c55 -95 59
-107 36 -107 -22 0 -117 167 -109 192 8 26 12 20 73 -85z"/>
<path d="M235 145 c-8 -14 -22 -36 -30 -50 -29 -47 -21 -55 50 -55 75 0 78 5
39 74 -33 58 -40 62 -59 31z m45 -67 c0 -4 -11 -8 -25 -8 -28 0 -30 3 -14 32
11 21 12 21 25 3 8 -10 14 -22 14 -27z"/>
</g>
</svg>
